<?xml version="1.0" encoding="UTF-8"?>
<svg xmlns="http://www.w3.org/2000/svg" xmlns:xlink="http://www.w3.org/1999/xlink" width="265.899902pt" height="60.179993pt" viewBox="0 0 265.899902 60.179993" version="1.2">
<defs>
<clipPath id="clip1">
  <path d="M 1.738281 0 L 62 0 L 62 59.371094 L 1.738281 59.371094 Z M 1.738281 0 "/>
</clipPath>
<clipPath id="clip2">
  <path d="M 252 19 L 264.0625 19 L 264.0625 34 L 252 34 Z M 252 19 "/>
</clipPath>
</defs>
<g id="surface1">
<g clip-path="url(#clip1)" clip-rule="nonzero">
<path style=" stroke:none;fill-rule:nonzero;fill:#161410;fill-opacity:1;" d="M 31.421875 0 C 15.027344 0 1.738281 13.289062 1.738281 29.683594 C 1.738281 46.082031 15.027344 59.371094 31.421875 59.371094 C 47.820312 59.371094 61.097656 46.082031 61.097656 29.683594 C 61.097656 13.289062 47.808594 0 31.421875 0 Z M 31.421875 56.371094 C 16.703125 56.371094 4.726562 44.394531 4.726562 29.683594 C 4.726562 14.976562 16.703125 3 31.421875 3 C 46.144531 3 58.121094 14.976562 58.121094 29.683594 C 58.121094 44.394531 46.144531 56.371094 31.421875 56.371094 Z M 31.421875 56.371094 "/>
</g>
<path style=" stroke:none;fill-rule:nonzero;fill:#161410;fill-opacity:1;" d="M 41.882812 32.0625 L 41.882812 34.863281 C 44.101562 35.160156 45.875 37.046875 45.875 39.609375 C 45.875 41.394531 44.425781 42.914062 42.582031 42.914062 C 40.738281 42.914062 39.277344 41.433594 39.277344 39.609375 L 39.277344 19.800781 C 39.277344 17.964844 40.757812 16.484375 42.582031 16.484375 C 44.40625 16.484375 45.875 17.996094 45.875 19.789062 C 45.875 22.355469 44.101562 24.230469 41.882812 24.527344 L 41.882812 27.328125 C 46.625 27.238281 50.445312 23.371094 50.445312 18.605469 C 50.445312 14.5625 47.1875 9.886719 42.175781 9.886719 C 37.945312 9.886719 34.519531 13.308594 34.519531 17.539062 C 34.519531 17.539062 34.519531 17.539062 34.519531 17.550781 L 34.519531 27.328125 L 28.324219 27.328125 L 28.324219 17.550781 C 28.324219 13.308594 24.902344 9.886719 20.679688 9.886719 C 15.667969 9.886719 12.402344 14.5625 12.402344 18.605469 C 12.402344 23.371094 16.21875 27.238281 20.964844 27.328125 L 20.964844 24.527344 C 18.746094 24.230469 16.980469 22.355469 16.980469 19.789062 C 16.980469 17.996094 18.421875 16.484375 20.285156 16.484375 C 22.148438 16.484375 23.589844 17.964844 23.589844 19.789062 L 23.589844 39.601562 C 23.589844 41.433594 22.109375 42.914062 20.285156 42.914062 C 18.460938 42.914062 16.980469 41.394531 16.980469 39.609375 C 16.980469 37.046875 18.757812 35.171875 20.964844 34.863281 L 20.964844 32.0625 C 16.230469 32.152344 12.402344 36.019531 12.402344 40.785156 C 12.402344 44.828125 15.660156 49.503906 20.679688 49.503906 C 24.902344 49.503906 28.324219 46.082031 28.324219 41.851562 L 28.324219 32.0625 L 34.519531 32.0625 L 34.519531 41.851562 C 34.519531 46.070312 37.945312 49.503906 42.175781 49.503906 C 47.1875 49.503906 50.445312 44.820312 50.445312 40.785156 C 50.445312 36.019531 46.625 32.152344 41.882812 32.0625 Z M 41.882812 32.0625 "/>
<path style=" stroke:none;fill-rule:nonzero;fill:#161410;fill-opacity:1;" d="M 92.707031 41.515625 L 89.105469 41.515625 L 89.105469 51.4375 L 87.429688 51.4375 L 87.429688 41.515625 L 83.820312 41.515625 L 83.820312 40.113281 L 92.707031 40.113281 Z M 92.707031 41.515625 "/>
<path style=" stroke:none;fill-rule:nonzero;fill:#161410;fill-opacity:1;" d="M 95.875 40.941406 C 95.875 41.082031 95.84375 41.21875 95.785156 41.347656 C 95.726562 41.476562 95.648438 41.59375 95.550781 41.683594 C 95.449219 41.769531 95.34375 41.859375 95.203125 41.910156 C 95.074219 41.96875 94.9375 41.988281 94.789062 41.988281 C 94.640625 41.988281 94.511719 41.957031 94.386719 41.910156 C 94.257812 41.851562 94.148438 41.78125 94.050781 41.683594 C 93.953125 41.582031 93.871094 41.476562 93.824219 41.347656 C 93.765625 41.21875 93.746094 41.082031 93.746094 40.941406 C 93.746094 40.804688 93.773438 40.65625 93.824219 40.527344 C 93.882812 40.398438 93.953125 40.28125 94.050781 40.191406 C 94.148438 40.105469 94.257812 40.015625 94.386719 39.964844 C 94.511719 39.90625 94.640625 39.886719 94.789062 39.886719 C 94.9375 39.886719 95.066406 39.917969 95.203125 39.964844 C 95.332031 40.023438 95.449219 40.09375 95.550781 40.191406 C 95.648438 40.292969 95.726562 40.398438 95.785156 40.527344 C 95.84375 40.65625 95.875 40.792969 95.875 40.941406 Z M 95.578125 43.417969 L 95.578125 51.4375 L 94.039062 51.4375 L 94.039062 43.417969 Z M 95.578125 43.417969 "/>
<path style=" stroke:none;fill-rule:nonzero;fill:#161410;fill-opacity:1;" d="M 104.398438 50.292969 C 104.210938 50.511719 103.996094 50.710938 103.746094 50.867188 C 103.5 51.023438 103.234375 51.152344 102.957031 51.261719 C 102.683594 51.359375 102.394531 51.4375 102.089844 51.480469 C 101.785156 51.519531 101.5 51.546875 101.210938 51.546875 C 100.660156 51.546875 100.148438 51.457031 99.671875 51.269531 C 99.199219 51.082031 98.796875 50.808594 98.449219 50.453125 C 98.105469 50.097656 97.839844 49.644531 97.640625 49.109375 C 97.453125 48.578125 97.355469 47.964844 97.355469 47.265625 C 97.355469 46.714844 97.445312 46.191406 97.613281 45.707031 C 97.789062 45.222656 98.035156 44.808594 98.359375 44.445312 C 98.6875 44.089844 99.082031 43.804688 99.546875 43.597656 C 100.007812 43.390625 100.542969 43.289062 101.125 43.289062 C 101.617188 43.289062 102.0625 43.367188 102.476562 43.527344 C 102.890625 43.683594 103.246094 43.921875 103.539062 44.226562 C 103.835938 44.535156 104.074219 44.90625 104.25 45.351562 C 104.429688 45.796875 104.507812 46.308594 104.507812 46.882812 C 104.507812 47.117188 104.476562 47.277344 104.429688 47.355469 C 104.378906 47.433594 104.28125 47.472656 104.132812 47.472656 L 98.875 47.472656 C 98.894531 47.957031 98.964844 48.371094 99.082031 48.726562 C 99.199219 49.082031 99.367188 49.378906 99.585938 49.613281 C 99.800781 49.851562 100.046875 50.027344 100.34375 50.148438 C 100.640625 50.265625 100.964844 50.324219 101.332031 50.324219 C 101.675781 50.324219 101.972656 50.285156 102.21875 50.207031 C 102.464844 50.128906 102.683594 50.039062 102.871094 49.949219 C 103.046875 49.859375 103.207031 49.773438 103.324219 49.691406 C 103.441406 49.613281 103.558594 49.574219 103.648438 49.574219 C 103.777344 49.574219 103.875 49.625 103.945312 49.710938 L 104.390625 50.285156 Z M 103.660156 42.214844 L 102.625 42.214844 C 102.496094 42.214844 102.386719 42.175781 102.289062 42.097656 L 101.320312 41.070312 C 101.320312 41.070312 101.230469 40.972656 101.183594 40.914062 C 101.132812 40.972656 101.09375 41.03125 101.042969 41.070312 L 100.066406 42.097656 C 100.066406 42.097656 99.980469 42.15625 99.921875 42.175781 C 99.859375 42.195312 99.800781 42.214844 99.734375 42.214844 L 98.65625 42.214844 L 100.433594 40.105469 L 101.875 40.105469 L 103.648438 42.214844 Z M 103.125 46.546875 C 103.125 46.238281 103.085938 45.964844 102.996094 45.699219 C 102.910156 45.441406 102.78125 45.214844 102.613281 45.027344 C 102.445312 44.839844 102.238281 44.691406 102 44.582031 C 101.765625 44.472656 101.480469 44.425781 101.164062 44.425781 C 100.511719 44.425781 100.007812 44.613281 99.632812 44.988281 C 99.257812 45.363281 99.03125 45.875 98.921875 46.546875 Z M 106.105469 38.871094 L 104.203125 40.585938 C 104.035156 40.765625 103.867188 40.84375 103.707031 40.824219 C 103.550781 40.8125 103.402344 40.726562 103.273438 40.578125 L 103.066406 40.320312 L 103.933594 39.234375 C 104.023438 39.117188 104.101562 39.027344 104.191406 38.96875 C 104.28125 38.910156 104.410156 38.871094 104.597656 38.871094 Z M 106.105469 38.871094 "/>
<path style=" stroke:none;fill-rule:nonzero;fill:#161410;fill-opacity:1;" d="M 108.621094 51.566406 C 107.96875 51.566406 107.476562 51.390625 107.121094 51.023438 C 106.777344 50.660156 106.597656 50.148438 106.597656 49.464844 L 106.597656 44.671875 L 105.671875 44.671875 C 105.582031 44.671875 105.503906 44.640625 105.445312 44.59375 C 105.386719 44.535156 105.355469 44.453125 105.355469 44.347656 L 105.355469 43.722656 L 106.65625 43.546875 L 107.003906 41.160156 C 107.023438 41.070312 107.0625 41 107.121094 40.953125 C 107.179688 40.902344 107.261719 40.875 107.359375 40.875 L 108.136719 40.875 L 108.136719 43.566406 L 110.40625 43.566406 L 110.40625 44.691406 L 108.136719 44.691406 L 108.136719 49.386719 C 108.136719 49.703125 108.214844 49.941406 108.375 50.097656 C 108.53125 50.253906 108.730469 50.335938 108.964844 50.335938 C 109.105469 50.335938 109.234375 50.316406 109.332031 50.273438 C 109.429688 50.234375 109.519531 50.195312 109.597656 50.15625 C 109.667969 50.117188 109.734375 50.066406 109.785156 50.039062 C 109.835938 50 109.882812 49.980469 109.921875 49.980469 C 109.972656 49.980469 110.011719 49.988281 110.042969 50.019531 C 110.070312 50.039062 110.101562 50.078125 110.128906 50.136719 L 110.585938 50.875 C 110.328125 51.113281 110.03125 51.292969 109.6875 51.410156 C 109.339844 51.539062 108.976562 51.597656 108.601562 51.597656 Z M 108.621094 51.566406 "/>
<path style=" stroke:none;fill-rule:nonzero;fill:#161410;fill-opacity:1;" d="M 117.804688 45.007812 L 118.359375 45.007812 C 118.554688 45.007812 118.722656 44.976562 118.84375 44.929688 C 118.96875 44.878906 119.078125 44.789062 119.175781 44.671875 L 122.789062 40.476562 C 122.90625 40.339844 123.023438 40.242188 123.144531 40.183594 C 123.261719 40.125 123.410156 40.105469 123.597656 40.105469 L 125.039062 40.105469 L 120.835938 44.9375 C 120.726562 45.074219 120.628906 45.183594 120.519531 45.273438 C 120.410156 45.363281 120.3125 45.429688 120.203125 45.488281 C 120.488281 45.589844 120.746094 45.796875 120.964844 46.101562 L 125.324219 51.449219 L 123.863281 51.449219 C 123.753906 51.449219 123.667969 51.449219 123.585938 51.429688 C 123.507812 51.410156 123.449219 51.390625 123.390625 51.359375 C 123.332031 51.332031 123.28125 51.292969 123.242188 51.25 C 123.191406 51.210938 123.152344 51.164062 123.125 51.105469 L 119.394531 46.683594 C 119.34375 46.613281 119.285156 46.554688 119.238281 46.507812 C 119.1875 46.457031 119.128906 46.417969 119.058594 46.386719 C 118.988281 46.359375 118.910156 46.339844 118.824219 46.328125 C 118.734375 46.320312 118.625 46.308594 118.507812 46.308594 L 117.816406 46.308594 L 117.816406 51.449219 L 116.140625 51.449219 L 116.140625 40.113281 L 117.816406 40.113281 L 117.816406 45.015625 Z M 117.804688 45.007812 "/>
<path style=" stroke:none;fill-rule:nonzero;fill:#161410;fill-opacity:1;" d="M 128.265625 40.941406 C 128.265625 41.082031 128.234375 41.21875 128.175781 41.347656 C 128.117188 41.476562 128.035156 41.59375 127.9375 41.683594 C 127.839844 41.769531 127.730469 41.859375 127.59375 41.910156 C 127.464844 41.96875 127.328125 41.988281 127.179688 41.988281 C 127.03125 41.988281 126.902344 41.957031 126.773438 41.910156 C 126.644531 41.851562 126.539062 41.78125 126.4375 41.683594 C 126.339844 41.582031 126.261719 41.476562 126.210938 41.347656 C 126.152344 41.21875 126.132812 41.082031 126.132812 40.941406 C 126.132812 40.804688 126.164062 40.65625 126.210938 40.527344 C 126.269531 40.398438 126.339844 40.28125 126.4375 40.191406 C 126.539062 40.105469 126.644531 40.015625 126.773438 39.964844 C 126.902344 39.90625 127.03125 39.886719 127.179688 39.886719 C 127.328125 39.886719 127.453125 39.917969 127.59375 39.964844 C 127.722656 40.023438 127.839844 40.09375 127.9375 40.191406 C 128.035156 40.292969 128.117188 40.398438 128.175781 40.527344 C 128.234375 40.65625 128.265625 40.792969 128.265625 40.941406 Z M 127.96875 43.417969 L 127.96875 51.4375 L 126.429688 51.4375 L 126.429688 43.417969 Z M 127.96875 43.417969 "/>
<path style=" stroke:none;fill-rule:nonzero;fill:#161410;fill-opacity:1;" d="M 136.789062 50.292969 C 136.601562 50.511719 136.382812 50.710938 136.136719 50.867188 C 135.890625 51.023438 135.625 51.152344 135.347656 51.261719 C 135.070312 51.359375 134.785156 51.4375 134.480469 51.480469 C 134.171875 51.519531 133.886719 51.546875 133.601562 51.546875 C 133.046875 51.546875 132.535156 51.457031 132.0625 51.269531 C 131.589844 51.082031 131.183594 50.808594 130.839844 50.453125 C 130.492188 50.097656 130.226562 49.644531 130.03125 49.109375 C 129.84375 48.578125 129.742188 47.964844 129.742188 47.265625 C 129.742188 46.714844 129.832031 46.191406 130 45.707031 C 130.179688 45.222656 130.425781 44.808594 130.75 44.445312 C 131.074219 44.089844 131.46875 43.804688 131.933594 43.597656 C 132.398438 43.390625 132.929688 43.289062 133.511719 43.289062 C 134.003906 43.289062 134.449219 43.367188 134.863281 43.527344 C 135.277344 43.683594 135.632812 43.921875 135.929688 44.226562 C 136.226562 44.535156 136.460938 44.90625 136.640625 45.351562 C 136.816406 45.796875 136.894531 46.308594 136.894531 46.882812 C 136.894531 47.117188 136.867188 47.277344 136.816406 47.355469 C 136.769531 47.433594 136.667969 47.472656 136.519531 47.472656 L 131.261719 47.472656 C 131.28125 47.957031 131.351562 48.371094 131.46875 48.726562 C 131.589844 49.082031 131.757812 49.378906 131.972656 49.613281 C 132.191406 49.851562 132.4375 50.027344 132.734375 50.148438 C 133.027344 50.265625 133.355469 50.324219 133.71875 50.324219 C 134.066406 50.324219 134.359375 50.285156 134.605469 50.207031 C 134.855469 50.128906 135.070312 50.039062 135.257812 49.949219 C 135.4375 49.859375 135.59375 49.773438 135.710938 49.691406 C 135.832031 49.613281 135.949219 49.574219 136.039062 49.574219 C 136.167969 49.574219 136.265625 49.625 136.332031 49.710938 L 136.777344 50.285156 Z M 136.046875 42.214844 L 135.011719 42.214844 C 134.953125 42.214844 134.882812 42.203125 134.824219 42.183594 C 134.765625 42.164062 134.695312 42.125 134.628906 42.058594 L 133.699219 41.070312 C 133.699219 41.070312 133.609375 40.972656 133.5625 40.914062 C 133.511719 40.972656 133.472656 41.03125 133.421875 41.070312 L 132.484375 42.058594 C 132.4375 42.105469 132.378906 42.144531 132.308594 42.175781 C 132.238281 42.203125 132.179688 42.214844 132.113281 42.214844 L 131.035156 42.214844 L 132.8125 40.105469 L 134.253906 40.105469 L 136.027344 42.214844 Z M 135.515625 46.546875 C 135.515625 46.238281 135.476562 45.964844 135.386719 45.699219 C 135.296875 45.441406 135.167969 45.214844 135.003906 45.027344 C 134.835938 44.839844 134.628906 44.691406 134.390625 44.582031 C 134.152344 44.472656 133.867188 44.425781 133.550781 44.425781 C 132.902344 44.425781 132.398438 44.613281 132.023438 44.988281 C 131.648438 45.363281 131.421875 45.875 131.3125 46.546875 Z M 134.546875 53.382812 C 134.546875 53.511719 134.519531 53.628906 134.46875 53.746094 C 134.417969 53.867188 134.351562 53.964844 134.261719 54.042969 C 134.171875 54.132812 134.074219 54.191406 133.957031 54.242188 C 133.835938 54.289062 133.71875 54.320312 133.589844 54.320312 C 133.464844 54.320312 133.34375 54.289062 133.234375 54.242188 C 133.128906 54.191406 133.027344 54.121094 132.941406 54.042969 C 132.851562 53.964844 132.792969 53.855469 132.742188 53.746094 C 132.695312 53.640625 132.664062 53.511719 132.664062 53.382812 C 132.664062 53.253906 132.695312 53.125 132.742188 53.007812 C 132.792969 52.890625 132.859375 52.789062 132.941406 52.703125 C 133.027344 52.613281 133.128906 52.542969 133.234375 52.496094 C 133.34375 52.445312 133.472656 52.414062 133.589844 52.414062 C 133.710938 52.414062 133.835938 52.445312 133.957031 52.496094 C 134.074219 52.542969 134.171875 52.613281 134.261719 52.703125 C 134.351562 52.789062 134.417969 52.890625 134.46875 53.007812 C 134.519531 53.125 134.546875 53.246094 134.546875 53.382812 Z M 134.546875 53.382812 "/>
<path style=" stroke:none;fill-rule:nonzero;fill:#161410;fill-opacity:1;" d="M 138.5625 51.4375 L 138.5625 43.417969 L 139.492188 43.417969 C 139.707031 43.417969 139.835938 43.515625 139.894531 43.722656 L 140.003906 44.492188 C 140.300781 44.136719 140.625 43.851562 140.992188 43.625 C 141.355469 43.398438 141.769531 43.289062 142.253906 43.289062 C 142.785156 43.289062 143.21875 43.4375 143.546875 43.722656 C 143.882812 44.019531 144.117188 44.414062 144.277344 44.90625 C 144.394531 44.621094 144.542969 44.375 144.730469 44.179688 C 144.917969 43.980469 145.113281 43.804688 145.339844 43.675781 C 145.566406 43.546875 145.804688 43.449219 146.0625 43.378906 C 146.316406 43.320312 146.574219 43.28125 146.839844 43.28125 C 147.265625 43.28125 147.648438 43.347656 147.984375 43.476562 C 148.320312 43.617188 148.605469 43.804688 148.832031 44.070312 C 149.058594 44.324219 149.238281 44.640625 149.367188 45.027344 C 149.484375 45.402344 149.542969 45.835938 149.542969 46.320312 L 149.542969 51.429688 L 147.996094 51.429688 L 147.996094 46.320312 C 147.996094 45.71875 147.867188 45.261719 147.601562 44.957031 C 147.34375 44.652344 146.960938 44.503906 146.457031 44.503906 C 146.238281 44.503906 146.023438 44.542969 145.824219 44.621094 C 145.628906 44.699219 145.449219 44.808594 145.300781 44.96875 C 145.152344 45.117188 145.035156 45.3125 144.945312 45.539062 C 144.859375 45.765625 144.816406 46.03125 144.816406 46.328125 L 144.816406 51.4375 L 143.269531 51.4375 L 143.269531 46.328125 C 143.269531 45.707031 143.140625 45.253906 142.894531 44.957031 C 142.648438 44.660156 142.28125 44.511719 141.808594 44.511719 C 141.472656 44.511719 141.167969 44.601562 140.882812 44.769531 C 140.59375 44.9375 140.339844 45.183594 140.101562 45.480469 L 140.101562 51.429688 L 138.5625 51.429688 Z M 138.5625 51.4375 "/>
<path style=" stroke:none;fill-rule:nonzero;fill:#161410;fill-opacity:1;" d="M 165.191406 40.105469 L 165.191406 51.4375 L 163.511719 51.4375 L 163.511719 46.328125 L 157.605469 46.328125 L 157.605469 51.4375 L 155.917969 51.4375 L 155.917969 40.105469 L 157.605469 40.105469 L 157.605469 45.105469 L 163.511719 45.105469 L 163.511719 40.105469 Z M 165.191406 40.105469 "/>
<path style=" stroke:none;fill-rule:nonzero;fill:#161410;fill-opacity:1;" d="M 176.152344 42.195312 C 176.179688 42.304688 176.210938 42.421875 176.230469 42.570312 C 176.25 42.707031 176.261719 42.855469 176.261719 43.003906 C 176.261719 43.605469 176.09375 44.117188 175.765625 44.535156 C 175.429688 44.949219 174.949219 45.222656 174.296875 45.363281 C 174.574219 45.953125 174.710938 46.644531 174.710938 47.425781 C 174.710938 48.054688 174.621094 48.628906 174.445312 49.140625 C 174.265625 49.652344 174.011719 50.085938 173.675781 50.441406 C 173.339844 50.796875 172.933594 51.074219 172.460938 51.269531 C 171.988281 51.457031 171.457031 51.558594 170.863281 51.558594 C 170.269531 51.558594 169.730469 51.457031 169.253906 51.269531 C 168.78125 51.074219 168.378906 50.808594 168.03125 50.441406 C 167.695312 50.085938 167.441406 49.652344 167.253906 49.140625 C 167.074219 48.628906 166.976562 48.054688 166.976562 47.425781 C 166.976562 46.792969 167.066406 46.21875 167.253906 45.71875 C 167.429688 45.214844 167.695312 44.769531 168.03125 44.414062 C 168.367188 44.058594 168.773438 43.773438 169.253906 43.585938 C 169.738281 43.398438 170.269531 43.300781 170.863281 43.300781 C 171.535156 43.300781 172.136719 43.417969 172.648438 43.664062 C 173.160156 43.910156 173.585938 44.257812 173.921875 44.710938 C 174.238281 44.652344 174.484375 44.535156 174.652344 44.355469 C 174.828125 44.1875 174.90625 43.980469 174.90625 43.765625 C 174.90625 43.683594 174.886719 43.605469 174.847656 43.546875 C 174.808594 43.488281 174.769531 43.417969 174.722656 43.359375 C 174.671875 43.300781 174.632812 43.222656 174.59375 43.140625 C 174.554688 43.0625 174.535156 42.964844 174.535156 42.847656 C 174.535156 42.640625 174.601562 42.480469 174.730469 42.371094 C 174.867188 42.265625 175.074219 42.203125 175.363281 42.203125 L 176.140625 42.203125 Z M 170.851562 50.355469 C 171.613281 50.355469 172.175781 50.097656 172.550781 49.585938 C 172.925781 49.070312 173.113281 48.351562 173.113281 47.433594 C 173.113281 46.515625 172.925781 45.785156 172.550781 45.273438 C 172.175781 44.761719 171.613281 44.503906 170.851562 44.503906 C 170.09375 44.503906 169.511719 44.761719 169.136719 45.273438 C 168.761719 45.785156 168.574219 46.507812 168.574219 47.433594 C 168.574219 48.359375 168.761719 49.082031 169.136719 49.585938 C 169.511719 50.097656 170.082031 50.355469 170.851562 50.355469 Z M 170.851562 50.355469 "/>
<path style=" stroke:none;fill-rule:nonzero;fill:#161410;fill-opacity:1;" d="M 178.589844 44.53125 C 178.765625 44.347656 178.941406 44.179688 179.128906 44.03125 C 179.316406 43.871094 179.523438 43.742188 179.734375 43.636719 C 179.949219 43.527344 180.175781 43.449219 180.421875 43.378906 C 180.667969 43.320312 180.925781 43.289062 181.210938 43.289062 C 181.65625 43.289062 182.042969 43.359375 182.375 43.507812 C 182.710938 43.65625 182.988281 43.863281 183.214844 44.128906 C 183.441406 44.394531 183.609375 44.710938 183.726562 45.085938 C 183.847656 45.460938 183.90625 45.875 183.90625 46.328125 L 183.90625 51.4375 L 182.355469 51.4375 L 182.355469 46.328125 C 182.355469 45.757812 182.230469 45.3125 181.960938 44.988281 C 181.695312 44.671875 181.300781 44.511719 180.757812 44.511719 C 180.363281 44.511719 180 44.601562 179.652344 44.789062 C 179.308594 44.976562 178.992188 45.234375 178.695312 45.550781 L 178.695312 51.429688 L 177.15625 51.429688 L 177.15625 43.410156 L 178.085938 43.410156 C 178.300781 43.410156 178.429688 43.507812 178.488281 43.714844 L 178.609375 44.523438 Z M 178.589844 44.53125 "/>
<path style=" stroke:none;fill-rule:nonzero;fill:#161410;fill-opacity:1;" d="M 185.722656 50.523438 C 185.722656 50.382812 185.75 50.246094 185.800781 50.117188 C 185.847656 49.988281 185.929688 49.878906 186.015625 49.78125 C 186.105469 49.683594 186.214844 49.613281 186.34375 49.554688 C 186.46875 49.496094 186.609375 49.476562 186.757812 49.476562 C 186.90625 49.476562 187.03125 49.503906 187.160156 49.554688 C 187.289062 49.613281 187.398438 49.683594 187.496094 49.78125 C 187.59375 49.878906 187.664062 49.988281 187.722656 50.117188 C 187.78125 50.246094 187.800781 50.375 187.800781 50.523438 C 187.800781 50.667969 187.773438 50.808594 187.722656 50.9375 C 187.664062 51.0625 187.59375 51.171875 187.496094 51.269531 C 187.398438 51.371094 187.289062 51.4375 187.160156 51.488281 C 187.03125 51.539062 186.90625 51.566406 186.757812 51.566406 C 186.609375 51.566406 186.46875 51.539062 186.34375 51.488281 C 186.214844 51.4375 186.105469 51.359375 186.015625 51.269531 C 185.929688 51.171875 185.847656 51.0625 185.800781 50.9375 C 185.75 50.808594 185.722656 50.667969 185.722656 50.523438 Z M 185.722656 50.523438 "/>
<path style=" stroke:none;fill-rule:nonzero;fill:#161410;fill-opacity:1;" d="M 205.914062 40.105469 L 205.914062 51.4375 L 204.445312 51.4375 L 204.445312 43.367188 C 204.445312 43.25 204.445312 43.121094 204.457031 42.984375 C 204.464844 42.847656 204.476562 42.707031 204.484375 42.570312 L 200.714844 49.496094 C 200.589844 49.753906 200.382812 49.878906 200.105469 49.878906 L 199.867188 49.878906 C 199.589844 49.878906 199.394531 49.753906 199.265625 49.496094 L 195.417969 42.550781 C 195.449219 42.847656 195.46875 43.121094 195.46875 43.378906 L 195.46875 51.449219 L 193.988281 51.449219 L 193.988281 40.113281 L 195.230469 40.113281 C 195.378906 40.113281 195.496094 40.125 195.578125 40.152344 C 195.65625 40.183594 195.734375 40.261719 195.8125 40.390625 L 199.601562 47.175781 C 199.671875 47.316406 199.738281 47.464844 199.808594 47.609375 C 199.878906 47.757812 199.9375 47.917969 199.988281 48.066406 C 200.09375 47.757812 200.222656 47.453125 200.371094 47.167969 L 204.089844 40.390625 C 204.160156 40.261719 204.238281 40.183594 204.316406 40.152344 C 204.394531 40.125 204.515625 40.113281 204.664062 40.113281 L 205.90625 40.113281 Z M 205.914062 40.105469 "/>
<path style=" stroke:none;fill-rule:nonzero;fill:#161410;fill-opacity:1;" d="M 211.578125 43.300781 C 212.171875 43.300781 212.703125 43.398438 213.175781 43.585938 C 213.648438 43.773438 214.054688 44.050781 214.390625 44.414062 C 214.726562 44.78125 214.980469 45.214844 215.160156 45.71875 C 215.335938 46.21875 215.425781 46.792969 215.425781 47.425781 C 215.425781 48.054688 215.335938 48.628906 215.160156 49.140625 C 214.980469 49.652344 214.726562 50.085938 214.390625 50.441406 C 214.054688 50.796875 213.648438 51.074219 213.175781 51.269531 C 212.703125 51.457031 212.171875 51.558594 211.578125 51.558594 C 210.988281 51.558594 210.445312 51.457031 209.96875 51.269531 C 209.496094 51.074219 209.09375 50.808594 208.746094 50.441406 C 208.410156 50.085938 208.15625 49.652344 207.96875 49.140625 C 207.789062 48.628906 207.691406 48.054688 207.691406 47.425781 C 207.691406 46.792969 207.78125 46.21875 207.96875 45.71875 C 208.144531 45.214844 208.410156 44.769531 208.746094 44.414062 C 209.082031 44.058594 209.488281 43.773438 209.96875 43.585938 C 210.453125 43.398438 210.988281 43.300781 211.578125 43.300781 Z M 211.578125 50.355469 C 212.339844 50.355469 212.902344 50.097656 213.277344 49.585938 C 213.648438 49.070312 213.835938 48.351562 213.835938 47.433594 C 213.835938 46.515625 213.648438 45.785156 213.277344 45.273438 C 212.902344 44.761719 212.339844 44.503906 211.578125 44.503906 C 210.820312 44.503906 210.238281 44.761719 209.863281 45.273438 C 209.488281 45.785156 209.300781 46.507812 209.300781 47.433594 C 209.300781 48.359375 209.488281 49.082031 209.863281 49.585938 C 210.238281 50.097656 210.808594 50.355469 211.578125 50.355469 Z M 212.535156 53.382812 C 212.535156 53.511719 212.507812 53.628906 212.457031 53.746094 C 212.40625 53.867188 212.339844 53.964844 212.25 54.042969 C 212.160156 54.132812 212.0625 54.191406 211.945312 54.242188 C 211.824219 54.289062 211.707031 54.320312 211.578125 54.320312 C 211.449219 54.320312 211.332031 54.289062 211.222656 54.242188 C 211.113281 54.191406 211.015625 54.121094 210.925781 54.042969 C 210.839844 53.964844 210.78125 53.855469 210.730469 53.746094 C 210.679688 53.640625 210.652344 53.511719 210.652344 53.382812 C 210.652344 53.253906 210.679688 53.125 210.730469 53.007812 C 210.78125 52.890625 210.847656 52.789062 210.925781 52.703125 C 211.015625 52.613281 211.113281 52.542969 211.222656 52.496094 C 211.332031 52.445312 211.460938 52.414062 211.578125 52.414062 C 211.695312 52.414062 211.824219 52.445312 211.945312 52.496094 C 212.0625 52.542969 212.160156 52.613281 212.25 52.703125 C 212.339844 52.789062 212.40625 52.890625 212.457031 53.007812 C 212.507812 53.125 212.535156 53.246094 212.535156 53.382812 Z M 212.535156 53.382812 "/>
<path style=" stroke:none;fill-rule:nonzero;fill:#161410;fill-opacity:1;" d="M 219.035156 40.941406 C 219.035156 41.082031 219.007812 41.21875 218.949219 41.347656 C 218.890625 41.476562 218.808594 41.59375 218.710938 41.683594 C 218.613281 41.769531 218.503906 41.859375 218.367188 41.910156 C 218.238281 41.96875 218.097656 41.988281 217.953125 41.988281 C 217.804688 41.988281 217.675781 41.957031 217.546875 41.910156 C 217.417969 41.851562 217.308594 41.78125 217.210938 41.683594 C 217.113281 41.582031 217.035156 41.476562 216.984375 41.347656 C 216.925781 41.21875 216.90625 41.082031 216.90625 40.941406 C 216.90625 40.804688 216.933594 40.65625 216.984375 40.527344 C 217.042969 40.398438 217.113281 40.28125 217.210938 40.191406 C 217.308594 40.105469 217.417969 40.015625 217.546875 39.964844 C 217.675781 39.90625 217.804688 39.886719 217.953125 39.886719 C 218.097656 39.886719 218.226562 39.917969 218.367188 39.964844 C 218.496094 40.023438 218.613281 40.09375 218.710938 40.191406 C 218.808594 40.292969 218.890625 40.398438 218.949219 40.527344 C 219.007812 40.65625 219.035156 40.792969 219.035156 40.941406 Z M 218.75 43.417969 L 218.75 51.4375 L 217.210938 51.4375 L 217.210938 43.417969 Z M 218.75 43.417969 "/>
<path style=" stroke:none;fill-rule:nonzero;fill:#161410;fill-opacity:1;" d="M 231.773438 50.027344 L 231.773438 51.4375 L 225.28125 51.4375 L 225.28125 40.105469 L 226.957031 40.105469 L 226.957031 50.027344 Z M 231.773438 50.027344 "/>
<path style=" stroke:none;fill-rule:nonzero;fill:#161410;fill-opacity:1;" d="M 239.351562 43.417969 L 239.351562 51.4375 L 238.421875 51.4375 C 238.214844 51.4375 238.078125 51.339844 238.007812 51.132812 L 237.898438 50.324219 C 237.722656 50.511719 237.542969 50.679688 237.355469 50.828125 C 237.167969 50.984375 236.960938 51.113281 236.746094 51.222656 C 236.527344 51.332031 236.300781 51.410156 236.054688 51.480469 C 235.808594 51.539062 235.550781 51.566406 235.277344 51.566406 C 234.832031 51.566406 234.445312 51.5 234.113281 51.351562 C 233.777344 51.203125 233.5 50.996094 233.273438 50.730469 C 233.046875 50.460938 232.878906 50.148438 232.761719 49.773438 C 232.640625 49.398438 232.582031 48.984375 232.582031 48.527344 L 232.582031 43.417969 L 234.132812 43.417969 L 234.132812 48.527344 C 234.132812 49.101562 234.257812 49.546875 234.527344 49.871094 C 234.792969 50.1875 235.1875 50.34375 235.730469 50.34375 C 236.125 50.34375 236.488281 50.253906 236.835938 50.066406 C 237.179688 49.878906 237.496094 49.625 237.800781 49.296875 L 237.800781 43.429688 L 239.339844 43.429688 Z M 238.421875 39.984375 L 236.546875 42.015625 C 236.46875 42.105469 236.390625 42.164062 236.320312 42.203125 C 236.253906 42.246094 236.152344 42.253906 236.027344 42.253906 L 235.097656 42.253906 L 236.261719 40.339844 C 236.332031 40.222656 236.421875 40.132812 236.5 40.0625 C 236.585938 40.003906 236.726562 39.976562 236.902344 39.976562 L 238.414062 39.976562 Z M 238.421875 39.984375 "/>
<path style=" stroke:none;fill-rule:nonzero;fill:#161410;fill-opacity:1;" d="M 247.125 44.917969 C 247.074219 44.976562 247.035156 45.027344 246.984375 45.054688 C 246.9375 45.085938 246.878906 45.105469 246.789062 45.105469 C 246.699219 45.105469 246.621094 45.074219 246.523438 45.007812 C 246.433594 44.9375 246.316406 44.867188 246.175781 44.789062 C 246.039062 44.710938 245.871094 44.640625 245.675781 44.574219 C 245.476562 44.503906 245.230469 44.472656 244.945312 44.472656 C 244.570312 44.472656 244.234375 44.542969 243.9375 44.679688 C 243.652344 44.820312 243.40625 45.015625 243.21875 45.261719 C 243.03125 45.511719 242.882812 45.824219 242.785156 46.191406 C 242.683594 46.554688 242.636719 46.960938 242.636719 47.414062 C 242.636719 47.867188 242.683594 48.300781 242.792969 48.667969 C 242.902344 49.03125 243.050781 49.335938 243.246094 49.59375 C 243.445312 49.839844 243.679688 50.039062 243.957031 50.167969 C 244.234375 50.292969 244.550781 50.363281 244.882812 50.363281 C 245.21875 50.363281 245.488281 50.324219 245.703125 50.246094 C 245.921875 50.167969 246.097656 50.078125 246.238281 49.980469 C 246.375 49.878906 246.492188 49.800781 246.589844 49.710938 C 246.691406 49.632812 246.777344 49.59375 246.886719 49.59375 C 247.015625 49.59375 247.113281 49.644531 247.183594 49.730469 L 247.628906 50.304688 C 247.441406 50.53125 247.234375 50.71875 247.007812 50.875 C 246.777344 51.035156 246.53125 51.164062 246.277344 51.261719 C 246.019531 51.359375 245.753906 51.4375 245.46875 51.480469 C 245.179688 51.519531 244.90625 51.546875 244.609375 51.546875 C 244.105469 51.546875 243.640625 51.457031 243.207031 51.269531 C 242.773438 51.082031 242.398438 50.816406 242.082031 50.460938 C 241.765625 50.105469 241.511719 49.671875 241.332031 49.160156 C 241.144531 48.648438 241.058594 48.066406 241.058594 47.414062 C 241.058594 46.820312 241.136719 46.269531 241.304688 45.765625 C 241.472656 45.261719 241.71875 44.828125 242.035156 44.464844 C 242.359375 44.097656 242.753906 43.8125 243.226562 43.605469 C 243.699219 43.398438 244.242188 43.289062 244.855469 43.289062 C 245.425781 43.289062 245.929688 43.378906 246.375 43.566406 C 246.808594 43.753906 247.203125 44.011719 247.539062 44.347656 Z M 247.125 44.917969 "/>
<path style=" stroke:none;fill-rule:nonzero;fill:#161410;fill-opacity:1;" d="M 248.800781 50.523438 C 248.800781 50.382812 248.832031 50.246094 248.878906 50.117188 C 248.929688 49.988281 249.007812 49.878906 249.097656 49.78125 C 249.1875 49.683594 249.292969 49.613281 249.421875 49.554688 C 249.550781 49.496094 249.6875 49.476562 249.835938 49.476562 C 249.984375 49.476562 250.113281 49.503906 250.242188 49.554688 C 250.371094 49.613281 250.476562 49.683594 250.578125 49.78125 C 250.675781 49.878906 250.746094 49.988281 250.804688 50.117188 C 250.863281 50.246094 250.882812 50.375 250.882812 50.523438 C 250.882812 50.667969 250.851562 50.808594 250.804688 50.9375 C 250.746094 51.0625 250.675781 51.171875 250.578125 51.269531 C 250.476562 51.371094 250.371094 51.4375 250.242188 51.488281 C 250.113281 51.539062 249.984375 51.566406 249.835938 51.566406 C 249.6875 51.566406 249.550781 51.539062 249.421875 51.488281 C 249.292969 51.4375 249.1875 51.359375 249.097656 51.269531 C 249.007812 51.171875 248.929688 51.0625 248.878906 50.9375 C 248.832031 50.808594 248.800781 50.667969 248.800781 50.523438 Z M 248.800781 50.523438 "/>
<path style=" stroke:none;fill-rule:nonzero;fill:#161410;fill-opacity:1;" d="M 229.121094 5.050781 L 224.828125 5.050781 L 224.828125 33.867188 L 229.121094 33.867188 Z M 229.121094 5.050781 "/>
<path style=" stroke:none;fill-rule:nonzero;fill:#161410;fill-opacity:1;" d="M 88.289062 5.050781 L 88.289062 17.402344 L 74.929688 17.402344 L 74.929688 5.050781 L 70.640625 5.050781 L 70.640625 33.859375 L 74.929688 33.859375 L 74.929688 21.507812 L 88.289062 21.507812 L 88.289062 33.859375 L 92.578125 33.859375 L 92.578125 5.050781 Z M 88.289062 5.050781 "/>
<path style=" stroke:none;fill-rule:nonzero;fill:#161410;fill-opacity:1;" d="M 113.316406 5.050781 L 112.300781 5.050781 L 98.777344 33.867188 L 102.574219 33.867188 C 103.207031 33.867188 103.746094 33.472656 103.953125 32.910156 L 106.804688 26.835938 L 118.78125 26.835938 L 121.683594 33.019531 C 121.921875 33.523438 122.421875 33.867188 123.023438 33.878906 L 126.824219 33.878906 L 113.296875 5.0625 Z M 108.75 22.730469 L 112.8125 14.066406 L 116.878906 22.730469 Z M 108.75 22.730469 "/>
<path style=" stroke:none;fill-rule:nonzero;fill:#161410;fill-opacity:1;" d="M 173.714844 5.050781 L 172.699219 5.050781 L 159.171875 33.867188 L 162.980469 33.867188 C 163.613281 33.867188 164.15625 33.472656 164.363281 32.910156 L 167.210938 26.835938 L 179.191406 26.835938 L 182.089844 33.019531 C 182.328125 33.523438 182.832031 33.867188 183.421875 33.878906 L 187.21875 33.878906 L 173.695312 5.0625 Z M 169.148438 22.730469 L 173.210938 14.066406 L 177.277344 22.730469 Z M 169.148438 22.730469 "/>
<path style=" stroke:none;fill-rule:nonzero;fill:#161410;fill-opacity:1;" d="M 151.625 20.292969 L 137.625 15.113281 C 137.125 14.917969 136.855469 14.34375 136.976562 13.8125 C 137.765625 11.226562 140.171875 9.332031 143.011719 9.332031 C 145.648438 9.332031 147.894531 10.941406 148.851562 13.238281 C 149.289062 14.277344 150.203125 14.019531 150.324219 13.988281 L 153.332031 13.210938 C 152.226562 8.535156 148.035156 5.050781 143.011719 5.050781 C 137.992188 5.050781 133.464844 8.820312 132.574219 13.78125 C 132.535156 14.007812 132.496094 14.234375 132.464844 14.472656 C 132.464844 14.5625 132.457031 14.648438 132.445312 14.738281 C 132.4375 14.878906 132.425781 15.015625 132.417969 15.152344 C 132.417969 15.152344 132.417969 15.3125 132.417969 15.378906 C 132.417969 16.664062 133.1875 17.757812 134.28125 18.242188 C 134.28125 18.242188 145.351562 22.34375 148.488281 23.5 C 149.335938 23.914062 149.128906 24.820312 149.128906 24.820312 C 148.429688 27.542969 145.953125 29.566406 143.011719 29.566406 C 140.289062 29.566406 137.960938 27.832031 137.074219 25.402344 C 136.914062 24.941406 136.414062 24.488281 135.722656 24.644531 L 132.632812 25.484375 C 133.660156 30.277344 137.914062 33.867188 143.003906 33.867188 C 148.09375 33.867188 152.445312 30.199219 153.410156 25.335938 C 153.410156 25.335938 153.519531 24.722656 153.558594 24.308594 C 153.597656 23.933594 153.617188 23.222656 153.617188 23.214844 C 153.617188 21.882812 152.789062 20.757812 151.625 20.292969 Z M 151.625 20.292969 "/>
<path style=" stroke:none;fill-rule:nonzero;fill:#161410;fill-opacity:1;" d="M 207.722656 19.21875 L 218.277344 5.050781 L 213.679688 5.050781 C 213.207031 5.050781 212.773438 5.289062 212.496094 5.632812 L 203.726562 17.402344 L 197.726562 17.402344 L 197.726562 5.050781 L 193.4375 5.050781 L 193.4375 33.867188 L 197.726562 33.867188 L 197.726562 21.515625 L 204.070312 21.515625 L 212.742188 33.15625 C 213.007812 33.582031 213.472656 33.867188 214.003906 33.867188 L 218.621094 33.867188 L 207.710938 19.226562 Z M 207.722656 19.21875 "/>
<path style=" stroke:none;fill-rule:nonzero;fill:#161410;fill-opacity:1;" d="M 237.554688 32.054688 C 237.554688 31.046875 236.746094 30.246094 235.75 30.246094 C 234.753906 30.246094 233.945312 31.058594 233.945312 32.054688 C 233.945312 33.050781 234.753906 33.859375 235.75 33.859375 C 236.746094 33.859375 237.554688 33.050781 237.554688 32.054688 Z M 237.554688 32.054688 "/>
<path style=" stroke:none;fill-rule:nonzero;fill:#161410;fill-opacity:1;" d="M 243.59375 33.859375 L 243.078125 33.859375 L 236.191406 19.1875 L 238.125 19.1875 C 238.453125 19.1875 238.730469 19.386719 238.828125 19.671875 L 243.324219 29.261719 L 247.855469 19.621094 C 247.972656 19.367188 248.230469 19.1875 248.535156 19.1875 L 250.46875 19.1875 L 243.582031 33.859375 Z M 243.59375 33.859375 "/>
<g clip-path="url(#clip2)" clip-rule="nonzero">
<path style=" stroke:none;fill-rule:nonzero;fill:#161410;fill-opacity:1;" d="M 261.882812 19.199219 L 261.882812 28.886719 L 252.855469 19.199219 L 252.332031 19.199219 L 252.332031 33.859375 L 254.511719 33.859375 L 254.511719 24.179688 L 263.539062 33.859375 L 264.0625 33.859375 L 264.0625 19.199219 Z M 261.882812 19.199219 "/>
</g>
</g>
</svg>
