<?xml version="1.0" encoding="UTF-8" standalone="no"?>
<svg xmlns="http://www.w3.org/2000/svg" width="203.6794" height="203.15108" viewBox="0 0 203.6794 203.15108" version="1.1">
  <g transform="translate(-364.0975,-319.35808)">
    <path style="fill:#161410;fill-opacity:1;fill-rule:nonzero;stroke:none" d="m 364.0975,522.50915 203.6794,0 0,-203.15107 -203.6794,0 0,203.15107 z"/>
    <path style="fill:#ffffff;fill-opacity:1;fill-rule:nonzero;stroke:none" d="m 514.04729,347.07141 13.04016,0 0,64.17615 -13.04016,0 0,-64.17615 z"/>
    <g transform="matrix(8.0050071,0,0,-8.0050071,432.54511,389.92446)">
      <path style="fill:#ffffff;fill-opacity:1;fill-rule:nonzero;stroke:none" d="m 0,0 c 0,-1.504 -1.147,-2.664 -2.647,-2.664 -1.497,0 -2.672,1.16 -2.672,2.664 l 0,5.353 1.589,0 0,-5.353 c 0,-0.608 0.483,-1.098 1.083,-1.098 0.603,0 1.082,0.49 1.082,1.098 l 0,5.353 L 0,5.353 0,0 z"/>
    </g>
    <g transform="matrix(8.0050071,0,0,-8.0050071,492.80124,494.84192)">
      <path style="fill:#ffffff;fill-opacity:1;fill-rule:nonzero;stroke:none" d="m 0,0 -5.354,0 0,8.014 1.623,0 0,-6.384 L 0,1.63 0,0 z"/>
    </g>
    <g transform="matrix(8.0050071,0,0,-8.0050071,492.80124,411.24275)">
      <path style="fill:#ffffff;fill-opacity:1;fill-rule:nonzero;stroke:none" d="m 0,0 -1.627,0 -2.104,4.593 0,-4.593 -1.623,0 0,8.017 1.623,0 2.104,-4.586 0,4.586 L 0,8.017 0,0 z"/>
    </g>
    <g transform="matrix(8.0050071,0,0,-8.0050071,411.34382,430.69236)">
      <path style="fill:#ffffff;fill-opacity:1;fill-rule:nonzero;stroke:none" d="m 0,0 c -1.495,0 -2.671,-1.198 -2.671,-2.648 l 0,-2.718 c 0,-1.431 1.176,-2.648 2.671,-2.648 0.181,0 0.357,0.019 0.525,0.05 l 0.558,-1.673 1.565,0 -0.741,2.408 c 0.434,0.496 0.741,1.171 0.741,1.863 l 0,2.718 C 2.648,-1.198 1.501,0 0,0 m 1.083,-5.366 c 0,-0.527 -0.479,-1.018 -1.083,-1.018 -0.599,0 -1.082,0.491 -1.082,1.018 l 0,2.718 c 0,0.599 0.483,1.08 1.082,1.08 0.604,0 1.083,-0.481 1.083,-1.08 l 0,-2.718 z"/>
    </g>
    <g transform="matrix(8.0050071,0,0,-8.0050071,520.54499,430.69236)">
      <path style="fill:#ffffff;fill-opacity:1;fill-rule:nonzero;stroke:none" d="m 0,0 c -1.499,0 -2.649,-1.198 -2.649,-2.648 l 0,-2.718 c 0,-1.431 1.15,-2.648 2.649,-2.648 1.496,0 2.648,1.217 2.648,2.648 l 0,2.718 C 2.648,-1.198 1.496,0 0,0 m 1.086,-5.366 c 0,-0.527 -0.49,-1.018 -1.086,-1.018 -0.599,0 -1.086,0.491 -1.086,1.018 l 0,2.718 c 0,0.599 0.487,1.08 1.086,1.08 0.596,0 1.086,-0.481 1.086,-1.08 l 0,-2.718 z"/>
    </g>
  </g>
</svg>
